<?xml version="1.0" encoding="UTF-8" standalone="no"?>
<!-- Created with Inkscape (http://www.inkscape.org/) -->

<svg
   xmlns:dc="http://purl.org/dc/elements/1.1/"
   xmlns:cc="http://creativecommons.org/ns#"
   xmlns:rdf="http://www.w3.org/1999/02/22-rdf-syntax-ns#"
   xmlns:svg="http://www.w3.org/2000/svg"
   xmlns="http://www.w3.org/2000/svg"
   xmlns:sodipodi="http://sodipodi.sourceforge.net/DTD/sodipodi-0.dtd"
   xmlns:inkscape="http://www.inkscape.org/namespaces/inkscape"
   width="1080mm"
   height="1175mm"
   viewBox="0 0 1080 1175"
   version="1.1"
   id="svg8"
   inkscape:version="0.92.1 r15371"
   sodipodi:docname="绘图.svg">
  <defs
     id="defs2" />
  <sodipodi:namedview
     id="base"
     pagecolor="#ffffff"
     bordercolor="#666666"
     borderopacity="1.0"
     inkscape:pageopacity="0.0"
     inkscape:pageshadow="2"
     inkscape:zoom="0.11529078"
     inkscape:cx="2040.9449"
     inkscape:cy="2220.4724"
     inkscape:document-units="mm"
     inkscape:current-layer="layer1"
     showgrid="false"
     inkscape:window-width="1366"
     inkscape:window-height="706"
     inkscape:window-x="-8"
     inkscape:window-y="-8"
     inkscape:window-maximized="1" />
  <metadata
     id="metadata5">
    <rdf:RDF>
      <cc:Work
         rdf:about="">
        <dc:format>image/svg+xml</dc:format>
        <dc:type
           rdf:resource="http://purl.org/dc/dcmitype/StillImage" />
        <dc:title></dc:title>
      </cc:Work>
    </rdf:RDF>
  </metadata>
  <g
     inkscape:label="Layer 1"
     inkscape:groupmode="layer"
     id="layer1"
     transform="translate(0,878)">
    <rect
       style="opacity:0.1;fill:#ffcc00;fill-opacity:1;stroke-width:0.17670688"
       id="rect1559"
       width="493.4082"
       height="438.33008"
       x="2.2949219"
       y="-875.70508" />
    <path
       sodipodi:type="star"
       style="opacity:0.1;fill:#217844;fill-opacity:1;stroke-width:0.26458332"
       id="path1561"
       sodipodi:sides="5"
       sodipodi:cx="371.77734"
       sodipodi:cy="-118.38087"
       sodipodi:r1="431.93939"
       sodipodi:r2="326.59674"
       sodipodi:arg1="0.3469553"
       sodipodi:arg2="0.97527383"
       inkscape:flatsided="false"
       inkscape:rounded="0"
       inkscape:randomized="0"
       d="M 777.97849,28.494126 554.97897,151.99405 357.61398,313.32625 171.24794,139.40468 -43.177245,1.5538139 64.641726,-229.43555 l 64.842934,-246.52873 253.00184,31.1623 254.50032,-14.51227 48.54476,250.24873 z"
       inkscape:transform-center-x="22.587977"
       inkscape:transform-center-y="-3.2628558"
       transform="matrix(-0.59336779,0.19046617,-0.18878625,-0.59864792,473.72453,-304.44736)" />
    <path
       sodipodi:type="spiral"
       style="fill:#aaccff;fill-rule:evenodd;stroke:#000000;stroke-width:0.26458332"
       id="path1563"
       sodipodi:cx="660.9375"
       sodipodi:cy="-618.67383"
       sodipodi:expansion="1"
       sodipodi:revolution="3"
       sodipodi:radius="314.00201"
       sodipodi:argument="-17.903257"
       sodipodi:t0="0.00048465899"
       d="m 661.02535,-618.54956 c 8.99153,12.96886 -13.05085,18.58548 -21.57902,15.0685 -23.13345,-9.54014 -21.69968,-41.02379 -8.80651,-58.05085 23.02208,-30.4036 68.51881,-26.61091 94.52267,-2.54452 38.13313,35.29194 31.73782,96.40985 -3.71747,130.9945 -47.2366,46.07664 -124.44512,36.96106 -167.46632,-9.97946 -54.12335,-59.0541 -42.23504,-152.55003 16.24145,-203.93815 70.80973,-62.22636 180.69435,-47.53855 240.40996,22.50344 70.3632,82.53082 52.86066,208.8633 -28.76542,276.88179 -94.23071,78.52186 -237.04867,58.19517 -313.35362,-35.02741 -86.69538,-105.91668 -63.53833,-265.24559 41.28941,-349.82544 117.59302,-94.87948 293.45091,-68.8878 386.29726,47.55139 102.37555,128.38981 74.73024,319.36821 -51.56643,420.97823"
       transform="matrix(0.88600426,0,0,0.90849086,175.84566,-51.651869)" />
    <path
       style="fill:#ab37c8;stroke:#000000;stroke-width:0.26458332px;stroke-linecap:butt;stroke-linejoin:miter;stroke-opacity:1"
       d="M 816.99218,-134.44532 C 835.35154,136.35545 683.88671,290.1152 828.46679,136.35545 973.04687,-17.404321 1023.5351,-260.66604 973.04687,-17.404321 922.55858,225.8574 1012.0605,253.39645 897.31444,241.92184 782.56836,230.44723 497.99803,78.982406 777.9785,235.03709 c 279.9805,156.05467 298.3399,-75.73242 298.3399,-75.73242 v 0 l -45.8985,-82.617207 25.2442,6.884776"
       id="path1568"
       inkscape:connector-curvature="0" />
  </g>
</svg>
